# xmcd CD database generated by RipIT
#
# Track frame offsets:
# 150
# 24510
# 50872
# 70545
# 92885
# 112968
# 132997
# 155802
# 171850
# 193273
# 201022
# 220674
# 237287
# 263661
#
# Disc length: 3836 seconds
#
# Revision: 0
# Processed by: cddbd v1.5.2PL0 Copyright (c) Steve Scherf et al.
# Submitted via: RipIT 3.7.0 www.suwald.com/ripit/ripit.html on 2010-04-24 at 12:42
#
DISCID=c90efa0e
DTITLE=Raphael Zweifel - Lozee Tell it to the sea
DYEAR=2010
DGENRE=
TTITLE0=Big Blue Sky
TTITLE1=Moonshine
TTITLE2=How Long
TTITLE3=Under My Skin
TTITLE4=Is It Time?
TTITLE5=Alright
TTITLE6=Whenever
TTITLE7=Blind
TTITLE8=Grey
TTITLE9=Are you
TTITLE10=But You
TTITLE11=Lunatic
TTITLE12=Flowerqueen
TTITLE13=Close Your Eyes
EXTD=
EXTT0=
EXTT1=
EXTT2=
EXTT3=
EXTT4=
EXTT5=
EXTT6=
EXTT7=
EXTT8=
EXTT9=
EXTT10=
EXTT11=
EXTT12=
EXTT13=
PLAYORDER=
